<?xml version="1.0" encoding="UTF-8"?>
<svg version="1.1" xmlns="http://www.w3.org/2000/svg" width="512" height="512">
<path d="M0 0 C0 31.02 0 62.04 0 94 C7.92 94.33 15.84 94.66 24 95 C24.020625 97.949375 24.04125 100.89875 24.0625 103.9375 C24.071604 104.86812256 24.08070801 105.79874512 24.09008789 106.75756836 C24.09258545 107.48596924 24.09508301 108.21437012 24.09765625 108.96484375 C24.10289307 109.7137085 24.10812988 110.46257324 24.11352539 111.23413086 C24 113 24 113 23 114 C21.29436222 114.15740605 19.58272756 114.25093392 17.87109375 114.31640625 C16.83662109 114.35830078 15.80214844 114.40019531 14.73632812 114.44335938 C13.64771484 114.48267578 12.55910156 114.52199219 11.4375 114.5625 C9.7987793 114.62727539 9.7987793 114.62727539 8.12695312 114.69335938 C5.41810436 114.79982068 2.70916008 114.90183516 0 115 C0.10464855 145.15837785 0.21434252 175.31673412 0.33111694 205.4750674 C0.34488713 209.03253177 0.35861414 212.5899963 0.37231445 216.14746094 C0.37504276 216.85571202 0.37777106 217.5639631 0.38058204 218.29367633 C0.42470172 229.77363387 0.46531995 241.25360128 0.50465261 252.7335761 C0.54506513 264.5060701 0.58922085 276.27854572 0.63687855 288.05101264 C0.66349544 294.66637128 0.68834889 301.28172623 0.70907402 307.89710617 C0.72861448 314.11697379 0.75275041 320.33680624 0.78049088 326.55664253 C0.78987507 328.84562735 0.79754539 331.13461989 0.80341911 333.42361641 C0.81165709 336.53646802 0.82592719 339.64923372 0.84178162 342.76205444 C0.84275972 343.67838351 0.84373783 344.59471257 0.84474558 345.53880918 C0.73723528 349.90659519 0.73723528 349.90659519 2 354 C4.58610846 354.26248852 7.09466432 354.42191637 9.6875 354.5 C11.10834759 354.54395707 12.52897192 354.59592557 13.94921875 354.65625 C14.89800903 354.68428711 14.89800903 354.68428711 15.8659668 354.71289062 C18 355 18 355 24 357 C24 363.27 24 369.54 24 376 C15.56206239 378.1094844 6.53433521 377.24872557 -2.0625 376.3125 C-3.27035156 376.18488281 -4.47820312 376.05726563 -5.72265625 375.92578125 C-9.70920744 374.79966369 -11.24266982 373.01948721 -14 370 C-15.90472542 368.93469725 -15.90472542 368.93469725 -17.75 368.375 C-18.8225 367.92125 -19.895 367.4675 -21 367 C-21.33 366.01 -21.66 365.02 -22 364 C-22.76957031 363.70480469 -23.53914063 363.40960938 -24.33203125 363.10546875 C-29.16316931 361.10369412 -31.4688556 356.4048487 -34 352 C-34.78515625 349.8203125 -34.78515625 349.8203125 -35.25 347.9375 C-35.62125 346.4834375 -35.62125 346.4834375 -36 345 C-36.99 344.67 -37.98 344.34 -39 344 C-39.19916016 342.69675781 -39.19916016 342.69675781 -39.40234375 341.3671875 C-39.57894531 340.21476562 -39.75554687 339.06234375 -39.9375 337.875 C-40.11152344 336.73804688 -40.28554687 335.60109375 -40.46484375 334.4296875 C-40.78392844 332.38475058 -41.12830964 330.34312729 -41.52509022 328.31183529 C-42.08781492 324.38761308 -42.14164999 320.53520827 -42.13371277 316.58094788 C-42.13597833 315.74771561 -42.13824388 314.91448334 -42.14057809 314.0560016 C-42.14689411 311.27177658 -42.14609027 308.48760053 -42.14526367 305.70336914 C-42.14825662 303.70401446 -42.15165946 301.70466035 -42.15544128 299.70530701 C-42.16427066 294.2797424 -42.16661892 288.85419358 -42.16725707 283.42862248 C-42.16796805 280.03847226 -42.17010327 276.64832604 -42.17275429 273.2581768 C-42.18200343 261.43000916 -42.18608962 249.60185278 -42.18530273 237.77368164 C-42.18470171 226.74920871 -42.19525956 215.72478467 -42.2110464 204.70032412 C-42.22412071 195.23265384 -42.22948669 185.76499955 -42.22884732 176.29732031 C-42.22859235 170.64375841 -42.23144338 164.99023999 -42.24202538 159.33668709 C-42.25170474 154.02039335 -42.25178661 148.70418468 -42.24450874 143.38788795 C-42.24346278 141.43801499 -42.24582648 139.48813674 -42.2518692 137.53827286 C-42.25959024 134.87409383 -42.25494357 132.21020851 -42.24723816 129.54603577 C-42.25238172 128.77676492 -42.25752529 128.00749408 -42.26282471 127.214912 C-42.2324331 122.45110121 -41.50254835 118.52630951 -40 114 C-43.63 114 -47.26 114 -51 114 C-51 107.73 -51 101.46 -51 95 C-46.05 94.505 -46.05 94.505 -41 94 C-41.16167664 93.14482285 -41.32335327 92.28964569 -41.4899292 91.40855408 C-41.99421502 88.03865821 -42.14037855 84.86831879 -42.16113281 81.46313477 C-42.17074036 80.18483292 -42.1803479 78.90653107 -42.19024658 77.5894928 C-42.19509444 76.20679912 -42.1993733 74.82410334 -42.203125 73.44140625 C-42.20595238 72.73852919 -42.20877975 72.03565212 -42.21169281 71.31147575 C-42.22663099 67.59460963 -42.23589537 63.87778181 -42.24023438 60.16088867 C-42.24572301 56.33673336 -42.26977436 52.51293336 -42.29820633 48.6888895 C-42.3168894 45.73336274 -42.32204122 42.77792082 -42.32357025 39.82234001 C-42.32658258 38.41302477 -42.3345628 37.00371052 -42.34775543 35.59445381 C-42.46828189 21.73508778 -42.46828189 21.73508778 -39 16 C-37.09765625 15.01953125 -37.09765625 15.01953125 -35.0625 14.8125 C-31.09851018 14.15663987 -29.8112065 12.90189059 -27 10 C-25.2365625 9.505 -25.2365625 9.505 -23.4375 9 C-19.96943838 8.36686668 -19.96943838 8.36686668 -18.5625 6.0625 C-16.1294407 2.85086172 -12.72027507 2.24009169 -9 1 C-7 0 -7 0 0 0 Z " fill="#1C3D1C" transform="translate(270,88)"/>
<path d="" fill="#1D3E1C" transform="translate(0,0)"/>
</svg>
